<?xml version="1.0" standalone="no"?>
<!DOCTYPE svg PUBLIC "-//W3C//DTD SVG 20010904//EN"
 "http://www.w3.org/TR/2001/REC-SVG-20010904/DTD/svg10.dtd">
<svg version="1.0" xmlns="http://www.w3.org/2000/svg"
 width="512.000000pt" height="512.000000pt" viewBox="0 0 512.000000 512.000000"
 preserveAspectRatio="xMidYMid meet">
<metadata>
Created by potrace 1.11, written by Peter Selinger 2001-2013
</metadata>
<g transform="translate(0.000000,512.000000) scale(0.100000,-0.100000)"
fill="#000000" stroke="none">
<path d="M2355 5114 c-16 -2 -70 -9 -120 -15 -551 -67 -1086 -330 -1485 -729
-400 -400 -643 -893 -732 -1485 -18 -120 -18 -530 0 -650 89 -592 332 -1085
732 -1485 400 -400 893 -643 1485 -732 120 -18 530 -18 650 0 592 89 1085 332
1485 732 400 400 643 893 732 1485 18 120 18 530 0 650 -89 592 -332 1085
-732 1485 -391 391 -875 634 -1447 726 -93 14 -498 28 -568 18z m-895 -2559
l0 -1615 -70 0 -70 0 0 1615 0 1615 70 0 70 0 0 -1615z m280 0 l0 -1615 -65 0
-65 0 0 1615 0 1615 65 0 65 0 0 -1615z m290 0 l0 -1615 -70 0 -70 0 0 1615 0
1615 70 0 70 0 0 -1615z m1770 1545 l0 -70 -745 0 -745 0 0 -70 0 -70 745 0
745 0 0 -70 0 -70 -745 0 -745 0 0 -70 0 -70 745 0 745 0 0 -70 0 -70 -745 0
-745 0 0 -280 0 -280 380 0 380 0 0 -70 0 -70 -380 0 -380 0 0 -70 0 -70 380
0 380 0 0 -70 0 -70 -380 0 -380 0 0 -70 0 -70 380 0 380 0 0 -70 0 -70 -380
0 -380 0 0 -285 0 -285 745 0 745 0 0 -70 0 -70 -745 0 -745 0 0 -70 0 -70
745 0 745 0 0 -70 0 -70 -745 0 -745 0 0 -70 0 -70 745 0 745 0 0 -70 0 -70
-815 0 -815 0 0 1615 0 1615 815 0 815 0 0 -70z"/>
</g>
</svg>
